<?xml version="1.0" standalone="no"?>
<!DOCTYPE svg PUBLIC "-//W3C//DTD SVG 20010904//EN"
 "http://www.w3.org/TR/2001/REC-SVG-20010904/DTD/svg10.dtd">
<svg version="1.0" xmlns="http://www.w3.org/2000/svg"
 width="80.000000pt" height="80.000000pt" viewBox="0 0 80.000000 80.000000"
 preserveAspectRatio="xMidYMid meet">
<metadata>
Created by potrace 1.11, written by Peter Selinger 2001-2013
</metadata>
<g transform="translate(0.000000,80.000000) scale(0.100000,-0.100000)"
fill="#000000" stroke="none">
<path d="M336 750 c-52 -36 -64 -40 -120 -40 l-63 0 -18 -60 c-16 -52 -25 -65
-72 -101 -45 -33 -54 -45 -49 -63 28 -97 30 -116 13 -170 -9 -29 -17 -57 -17
-63 0 -5 23 -25 50 -44 50 -34 56 -44 95 -156 3 -9 26 -13 65 -13 l62 0 -7 32
c-4 17 -25 73 -46 124 -21 52 -40 108 -41 126 -3 32 -1 34 90 78 50 24 94 51
96 60 2 8 7 32 11 53 3 20 10 37 15 37 5 0 12 -17 15 -37 4 -21 9 -45 11 -53
2 -9 46 -36 96 -60 91 -44 93 -46 90 -78 -1 -18 -20 -74 -41 -126 -21 -51 -42
-107 -46 -124 l-7 -32 62 0 c39 0 62 4 65 12 39 113 45 123 95 157 27 19 50
39 50 44 0 6 -8 34 -17 63 -17 54 -15 73 13 170 5 18 -4 30 -49 63 -47 36 -56
49 -72 101 l-18 60 -62 0 c-56 0 -69 4 -123 40 -33 22 -61 40 -63 40 -2 0 -30
-18 -63 -40z"/>
<path d="M360 415 c-19 -13 -52 -35 -72 -49 -23 -16 -38 -34 -38 -46 0 -31 56
-130 74 -130 3 0 6 29 6 65 0 57 3 69 25 90 58 59 115 9 115 -100 0 -30 3 -55
6 -55 18 0 74 99 74 130 0 12 -15 31 -39 47 -36 26 -99 65 -111 69 -3 1 -21
-8 -40 -21z"/>
</g>
</svg>
