<svg style="position: absolute; width: 0; height: 0; overflow: hidden;" version="1.1" xmlns="http://www.w3.org/2000/svg" xmlns:xlink="http://www.w3.org/1999/xlink">
    <defs>
        <symbol id="airplane" viewBox="0 0 512.001 512.001">
            <path d="M507.608,4.395c-4.243-4.244-10.609-5.549-16.177-3.321L9.43,193.872c-5.515,2.206-9.208,7.458-9.42,13.395
			c-0.211,5.936,3.101,11.437,8.445,14.029l190.068,92.181l92.182,190.068c2.514,5.184,7.764,8.455,13.493,8.455
			c0.178,0,0.357-0.003,0.536-0.01c5.935-0.211,11.189-3.904,13.394-9.419l192.8-481.998
			C513.156,15.001,511.851,8.638,507.608,4.395z M52.094,209.118L434.72,56.069L206.691,284.096L52.094,209.118z M302.883,459.907
			l-74.979-154.599l228.03-228.027L302.883,459.907z"/>
        </symbol>

        <symbol id="wave" viewBox="0 0 512 512">
            <path d="m469.001 415.014h32.999c5.522 0 10-4.478 10-10s-4.478-10-10-10h-32.999c-51.236 0-92.92-41.684-92.92-92.92 0-15.997 13.015-29.011 29.012-29.011 15.998 0 29.014 13.014 29.014 29.011 0 4.867 3.504 9.027 8.3 9.854 4.803.825 9.492-1.92 11.122-6.504 11.76-33.071 3.329-70.47-21.478-95.275-9.017-9.016-19.37-16.354-30.775-21.809-4.977-2.383-10.951-.277-13.336 4.707-2.383 4.981-.275 10.952 4.707 13.336 9.354 4.474 17.853 10.499 25.262 17.908 11.392 11.391 18.362 26.181 20.307 41.687-8.729-8.016-20.364-12.915-33.122-12.915-27.025 0-49.012 21.986-49.012 49.011-.001 62.265 50.655 112.92 112.919 112.92z"/><path d="m51.327 395.014h-41.327c-5.522 0-10 4.478-10 10s4.478 10 10 10h41.327c46.304 0 90.691-14.094 128.364-40.759 21.594-15.284 40.056-34.001 54.794-55.357 2.65 31.1 15.838 61.462 39.586 85.21 1.953 1.952 4.512 2.929 7.071 2.929s5.118-.977 7.071-2.929c3.905-3.905 3.905-10.237 0-14.143-45.671-45.671-45.671-119.982 0-165.653 7.409-7.409 15.91-13.436 25.268-17.911 4.982-2.384 7.09-8.354 4.707-13.337-2.384-4.981-8.352-7.085-13.337-4.706-11.407 5.457-21.764 12.796-30.78 21.812-8.697 8.697-15.97 18.286-21.838 28.469-28.399-18.894-45.219-50.12-45.219-84.454 0-17.784 14.469-32.253 32.253-32.253 17.785 0 32.255 14.469 32.255 32.253 0 4.867 3.504 9.027 8.3 9.854 4.802.825 9.492-1.919 11.122-6.504 12.631-35.52 3.576-75.685-23.065-102.326-22.695-22.695-52.87-35.194-84.965-35.194-32.096 0-62.271 12.499-84.966 35.194-16.551 16.551-28.69 36.338-35.827 57.934-12.343 32.753-32.655 62.487-58.812 86.037-4.104 3.695-4.436 10.019-.74 14.123 1.975 2.192 4.699 3.309 7.435 3.309 2.384 0 4.777-.848 6.688-2.568 14.549-13.099 27.429-27.96 38.352-44.115 2.43 35.58 17.445 68.698 42.904 94.157 1.953 1.952 4.512 2.929 7.071 2.929s5.118-.977 7.071-2.929c3.905-3.905 3.905-10.237 0-14.143-24.12-24.119-37.403-56.187-37.403-90.296s13.283-66.177 37.403-90.296c18.917-18.918 44.069-29.337 70.823-29.337 26.753 0 51.905 10.419 70.822 29.337 13.028 13.027 20.774 30.12 22.482 47.921-9.463-9.472-22.535-15.341-36.951-15.341-28.813 0-52.253 23.44-52.253 52.253 0 21.321 5.605 42.299 16.212 60.664 9.814 16.995 23.702 31.445 40.264 41.958-.812 2.065-1.561 4.148-2.269 6.242-29.314 78.936-105.661 131.966-189.893 131.966z"/><path d="m509.072 460.386c-3.904-3.903-10.234-3.905-14.143 0-15.479 15.479-40.665 15.478-56.144-.001-23.278-23.276-61.151-23.275-84.428.001-15.479 15.479-40.665 15.478-56.144-.001-11.274-11.275-26.266-17.485-42.213-17.484-15.946 0-30.938 6.21-42.214 17.485-15.479 15.479-40.665 15.478-56.144-.001-11.276-11.275-26.269-17.485-42.214-17.484-15.947 0-30.938 6.21-42.214 17.485-15.478 15.478-40.664 15.479-56.144 0-3.906-3.904-10.238-3.904-14.143 0-3.905 3.905-3.905 10.237 0 14.143 23.277 23.275 61.151 23.274 84.429-.001 7.498-7.498 17.467-11.627 28.071-11.627s20.573 4.129 28.071 11.628c23.277 23.275 61.151 23.274 84.429-.001 7.498-7.498 17.467-11.627 28.071-11.627s20.573 4.129 28.071 11.628c23.277 23.275 61.151 23.276 84.429-.001 15.479-15.479 40.664-15.478 56.143.001 11.639 11.638 26.927 17.457 42.214 17.457 15.288 0 30.576-5.819 42.215-17.457 3.907-3.905 3.907-10.237.002-14.143z"/><path id="XMLID_698_" d="m353.06 197.454c-2.63 0-5.21-1.069-7.069-2.93-1.86-1.86-2.931-4.44-2.931-7.07 0-2.64 1.07-5.21 2.931-7.08 1.859-1.859 4.439-2.92 7.069-2.92s5.21 1.061 7.07 2.92c1.87 1.87 2.93 4.45 2.93 7.08s-1.06 5.2-2.93 7.07c-1.86 1.861-4.43 2.93-7.07 2.93z"/><path id="XMLID_697_" d="m353.06 197.454c-2.63 0-5.21-1.069-7.069-2.93-1.86-1.86-2.931-4.44-2.931-7.07 0-2.64 1.07-5.21 2.931-7.08 1.859-1.859 4.439-2.92 7.069-2.92s5.21 1.061 7.07 2.92c1.87 1.87 2.93 4.45 2.93 7.08s-1.06 5.2-2.93 7.07c-1.86 1.861-4.43 2.93-7.07 2.93z"/>
        </symbol>

        <symbol id="yoga" viewBox="0 -98 481.63589 481">
            <path d="m0 213.417969c-.0351562 39.269531 31.757812 71.140625 71.027344 71.199219 4.296875.003906 8.585937-.398438 12.804687-1.207032v.265625l230.125-.234375c2.675781-.003906 5.25-1.058594 7.15625-2.941406l157.585938-157.964844c2.859375-2.855468 3.722656-7.148437 2.183593-10.882812-1.542968-3.734375-5.179687-6.175782-9.222656-6.179688h-195.9375c17.226563-31.792968 7.898438-71.445312-21.691406-92.222656-29.59375-20.777344-70.054688-16.082031-94.105469 10.914062l-132.582031 133.222657c-4.679688 3.671875-8.886719 7.910156-12.523438 12.621093-.40625.445313-.769531.929688-1.085937 1.441407-8.933594 12.167969-13.7460938 26.871093-13.734375 41.96875zm20 0c-.011719-10.914063 3.488281-21.542969 9.972656-30.320313l10.730469-10.78125c19.046875-14.121094 45.300781-13.308594 63.441406 1.960938 18.140625 15.269531 23.417969 41 12.753907 62.179687-10.667969 21.175781-34.484376 32.253907-57.550782 26.769531-23.070312-5.484374-39.351562-26.097656-39.34375-49.808593zm289.964844 50.027343-188.34375.191407c.402344-.398438.777344-.8125 1.167968-1.222657.144532-.128906.300782-.253906.433594-.394531l136.609375-136.546875h187.734375zm-135.660156-225.375c.136718-.140624.273437-.285156.402343-.429687 12.417969-14.054687 31.527344-20.191406 49.804688-16.003906 18.28125 4.191406 32.804687 18.039062 37.863281 36.097656 5.058594 18.054687-.160156 37.433594-13.601562 50.511719l-.101563.097656-106.300781 106.257812c.007812-.398437.03125-.785156.03125-1.183593-.042969-39.304688-31.894532-71.15625-71.199219-71.199219-.1875 0-.367187.011719-.554687.011719zm0 0"/><path d="m71.199219 172.742188c-22.460938 0-40.671875 18.210937-40.671875 40.675781 0 22.460937 18.207031 40.671875 40.671875 40.671875 22.464843 0 40.675781-18.210938 40.675781-40.671875-.027344-22.453125-18.222656-40.648438-40.675781-40.675781zm0 61.347656c-11.417969 0-20.671875-9.253906-20.671875-20.671875 0-11.421875 9.253906-20.675781 20.671875-20.675781s20.675781 9.257812 20.675781 20.675781c-.015625 11.410156-9.261719 20.65625-20.675781 20.671875zm0 0"/>
        </symbol>

        <symbol id="facebook" viewBox="0 0 512 512">
            <path d="M288,176v-64c0-17.664,14.336-32,32-32h32V0h-64c-53.024,0-96,42.976-96,96v80h-64v80h64v256h96V256h64l32-80H288z"/>
        </symbol>

        <symbol id="instagram" viewBox="0 0 97.395 97.395">
            <path d="M12.501,0h72.393c6.875,0,12.5,5.09,12.5,12.5v72.395c0,7.41-5.625,12.5-12.5,12.5H12.501C5.624,97.395,0,92.305,0,84.895
		V12.5C0,5.09,5.624,0,12.501,0L12.501,0z M70.948,10.821c-2.412,0-4.383,1.972-4.383,4.385v10.495c0,2.412,1.971,4.385,4.383,4.385
		h11.008c2.412,0,4.385-1.973,4.385-4.385V15.206c0-2.413-1.973-4.385-4.385-4.385H70.948L70.948,10.821z M86.387,41.188h-8.572
		c0.811,2.648,1.25,5.453,1.25,8.355c0,16.2-13.556,29.332-30.275,29.332c-16.718,0-30.272-13.132-30.272-29.332
		c0-2.904,0.438-5.708,1.25-8.355h-8.945v41.141c0,2.129,1.742,3.872,3.872,3.872h67.822c2.13,0,3.872-1.742,3.872-3.872V41.188
		H86.387z M48.789,29.533c-10.802,0-19.56,8.485-19.56,18.953c0,10.468,8.758,18.953,19.56,18.953
		c10.803,0,19.562-8.485,19.562-18.953C68.351,38.018,59.593,29.533,48.789,29.533z"/>
        </symbol>

        <symbol id="vk" viewBox="0 0 24 24">
            <path d="m19.915 13.028c-.388-.49-.277-.708 0-1.146.005-.005 3.208-4.431 3.538-5.932l.002-.001c.164-.547 0-.949-.793-.949h-2.624c-.668 0-.976.345-1.141.731 0 0-1.336 3.198-3.226 5.271-.61.599-.892.791-1.225.791-.164 0-.419-.192-.419-.739v-5.105c0-.656-.187-.949-.74-.949h-4.126c-.419 0-.668.306-.668.591 0 .622.945.765 1.043 2.515v3.797c0 .832-.151.985-.486.985-.892 0-3.057-3.211-4.34-6.886-.259-.713-.512-1.001-1.185-1.001h-2.625c-.749 0-.9.345-.9.731 0 .682.892 4.073 4.148 8.553 2.17 3.058 5.226 4.715 8.006 4.715 1.671 0 1.875-.368 1.875-1.001 0-2.922-.151-3.198.686-3.198.388 0 1.056.192 2.616 1.667 1.783 1.749 2.076 2.532 3.074 2.532h2.624c.748 0 1.127-.368.909-1.094-.499-1.527-3.871-4.668-4.023-4.878z"/>
        </symbol>
    </defs>
</svg>