<svg height="481pt" viewBox="0 -98 481.63589 481" width="481pt" xmlns="http://www.w3.org/2000/svg"><path d="m0 213.417969c-.0351562 39.269531 31.757812 71.140625 71.027344 71.199219 4.296875.003906 8.585937-.398438 12.804687-1.207032v.265625l230.125-.234375c2.675781-.003906 5.25-1.058594 7.15625-2.941406l157.585938-157.964844c2.859375-2.855468 3.722656-7.148437 2.183593-10.882812-1.542968-3.734375-5.179687-6.175782-9.222656-6.179688h-195.9375c17.226563-31.792968 7.898438-71.445312-21.691406-92.222656-29.59375-20.777344-70.054688-16.082031-94.105469 10.914062l-132.582031 133.222657c-4.679688 3.671875-8.886719 7.910156-12.523438 12.621093-.40625.445313-.769531.929688-1.085937 1.441407-8.933594 12.167969-13.7460938 26.871093-13.734375 41.96875zm20 0c-.011719-10.914063 3.488281-21.542969 9.972656-30.320313l10.730469-10.78125c19.046875-14.121094 45.300781-13.308594 63.441406 1.960938 18.140625 15.269531 23.417969 41 12.753907 62.179687-10.667969 21.175781-34.484376 32.253907-57.550782 26.769531-23.070312-5.484374-39.351562-26.097656-39.34375-49.808593zm289.964844 50.027343-188.34375.191407c.402344-.398438.777344-.8125 1.167968-1.222657.144532-.128906.300782-.253906.433594-.394531l136.609375-136.546875h187.734375zm-135.660156-225.375c.136718-.140624.273437-.285156.402343-.429687 12.417969-14.054687 31.527344-20.191406 49.804688-16.003906 18.28125 4.191406 32.804687 18.039062 37.863281 36.097656 5.058594 18.054687-.160156 37.433594-13.601562 50.511719l-.101563.097656-106.300781 106.257812c.007812-.398437.03125-.785156.03125-1.183593-.042969-39.304688-31.894532-71.15625-71.199219-71.199219-.1875 0-.367187.011719-.554687.011719zm0 0"/><path d="m71.199219 172.742188c-22.460938 0-40.671875 18.210937-40.671875 40.675781 0 22.460937 18.207031 40.671875 40.671875 40.671875 22.464843 0 40.675781-18.210938 40.675781-40.671875-.027344-22.453125-18.222656-40.648438-40.675781-40.675781zm0 61.347656c-11.417969 0-20.671875-9.253906-20.671875-20.671875 0-11.421875 9.253906-20.675781 20.671875-20.675781s20.675781 9.257812 20.675781 20.675781c-.015625 11.410156-9.261719 20.65625-20.675781 20.671875zm0 0"/></svg>